<svg width="90" height="63" viewBox="0 0 90 63" fill="none" xmlns="http://www.w3.org/2000/svg">
<path d="M1.696 28.5781L11.034 6.59612H11.237L20.575 28.5781H16.689L10.106 11.9031L12.542 10.2501L5.031 28.5781H1.696ZM7.554 20.7481H14.775L15.935 23.6191H6.539L7.554 20.7481ZM26.4393 16.3111L26.7293 19.7911L26.6133 19.2981C26.9613 18.5635 27.435 17.9351 28.0343 17.4131C28.653 16.8718 29.2813 16.4658 29.9193 16.1951C30.5573 15.9051 31.0793 15.7601 31.4853 15.7601L31.3403 19.0081C30.4123 18.9308 29.6003 19.1048 28.9043 19.5301C28.2277 19.9361 27.696 20.4775 27.3093 21.1541C26.942 21.8308 26.7583 22.5461 26.7583 23.3001V28.5781H23.5103V16.3111H26.4393ZM35.9701 10.9171H39.2471V16.3111H42.4371V18.8631H39.2471V28.5781H35.9701V18.8631H33.8821V16.3111H35.9701V10.9171ZM20.691 53.6351C20.4203 53.9058 20.0143 54.1668 19.473 54.4181C18.951 54.6695 18.3613 54.9015 17.704 55.1141C17.0467 55.3268 16.37 55.4911 15.674 55.6071C14.978 55.7425 14.3207 55.8101 13.702 55.8101C12.0007 55.8101 10.4637 55.5491 9.091 55.0271C7.73767 54.5051 6.568 53.7898 5.582 52.8811C4.61533 51.9531 3.871 50.8608 3.349 49.6041C2.84633 48.3475 2.595 46.9845 2.595 45.5151C2.595 43.6785 2.885 42.0641 3.465 40.6721C4.045 39.2608 4.83767 38.0815 5.843 37.1341C6.84833 36.1675 7.99867 35.4425 9.294 34.9591C10.6087 34.4758 11.991 34.2341 13.441 34.2341C14.717 34.2341 15.8963 34.3791 16.979 34.6691C18.081 34.9591 19.0187 35.3265 19.792 35.7711L18.69 38.9031C18.3227 38.6905 17.849 38.4875 17.269 38.2941C16.689 38.0815 16.0993 37.9171 15.5 37.8011C14.92 37.6851 14.3787 37.6271 13.876 37.6271C12.658 37.6271 11.5657 37.8011 10.599 38.1491C9.65167 38.4778 8.83967 38.9708 8.163 39.6281C7.48633 40.2855 6.96433 41.0878 6.597 42.0351C6.249 42.9631 6.075 44.0265 6.075 45.2251C6.075 46.3078 6.25867 47.2938 6.626 48.1831C7.01267 49.0725 7.54433 49.8361 8.221 50.4741C8.917 51.1121 9.729 51.6051 10.657 51.9531C11.6043 52.2818 12.6483 52.4461 13.789 52.4461C14.4463 52.4461 15.0843 52.3881 15.703 52.2721C16.3217 52.1561 16.8437 51.9725 17.269 51.7211V48.2121H13.325V44.9641H20.691V53.6351ZM29.0969 56.1001C27.9756 56.1001 27.0476 55.7618 26.3129 55.0851C25.5783 54.3891 25.1916 53.4998 25.1529 52.4171V43.3111H28.4009V51.2571C28.4396 51.8565 28.6136 52.3495 28.9229 52.7361C29.2323 53.1228 29.7253 53.3161 30.4019 53.3161C31.0399 53.3161 31.6103 53.1228 32.1129 52.7361C32.6156 52.3301 33.0023 51.7791 33.2729 51.0831C33.5629 50.3871 33.7079 49.6041 33.7079 48.7341V43.3111H36.9559V55.5781H34.0269L33.7659 52.8811L33.8529 53.3161C33.6016 53.8381 33.2439 54.3215 32.7799 54.7661C32.3159 55.1915 31.7649 55.5201 31.1269 55.7521C30.5083 55.9841 29.8316 56.1001 29.0969 56.1001ZM41.4371 43.3111H44.6851V55.5781H41.4371V43.3111ZM41.2921 38.9321C41.2921 38.4295 41.4854 38.0138 41.8721 37.6851C42.2781 37.3565 42.7131 37.1921 43.1771 37.1921C43.6411 37.1921 44.0568 37.3565 44.4241 37.6851C44.8108 38.0138 45.0041 38.4295 45.0041 38.9321C45.0041 39.4348 44.8108 39.8505 44.4241 40.1791C44.0568 40.4885 43.6411 40.6431 43.1771 40.6431C42.7131 40.6431 42.2781 40.4788 41.8721 40.1501C41.4854 39.8215 41.2921 39.4155 41.2921 38.9321ZM50.3002 37.9171H53.5772V43.3111H56.7672V45.8631H53.5772V55.5781H50.3002V45.8631H48.2122V43.3111H50.3002V37.9171ZM65.1206 55.8971C63.9606 55.8971 62.9069 55.6555 61.9596 55.1721C61.0316 54.6888 60.2969 53.9735 59.7556 53.0261C59.2143 52.0595 58.9436 50.8705 58.9436 49.4591C58.9436 48.0671 59.2239 46.8781 59.7846 45.8921C60.3646 44.8868 61.1186 44.1135 62.0466 43.5721C62.9939 43.0308 64.0186 42.7601 65.1206 42.7601C66.2999 42.7601 67.2473 42.9921 67.9626 43.4561C68.6973 43.9201 69.2676 44.4711 69.6736 45.1091L69.4996 45.5731L69.8186 43.3111H72.8056V55.5781H69.5576V52.5911L69.8766 53.3741C69.7993 53.4901 69.6446 53.6835 69.4126 53.9541C69.1806 54.2055 68.8616 54.4858 68.4556 54.7951C68.0496 55.1045 67.5663 55.3655 67.0056 55.5781C66.4643 55.7908 65.8359 55.8971 65.1206 55.8971ZM66.0196 53.2291C66.5996 53.2291 67.1216 53.1228 67.5856 52.9101C68.0689 52.6975 68.4749 52.3978 68.8036 52.0111C69.1516 51.6245 69.4029 51.1605 69.5576 50.6191V47.9511C69.4029 47.4485 69.1516 47.0135 68.8036 46.6461C68.4556 46.2595 68.0303 45.9598 67.5276 45.7471C67.0443 45.5345 66.5029 45.4281 65.9036 45.4281C65.2463 45.4281 64.6373 45.5925 64.0766 45.9211C63.5159 46.2498 63.0616 46.7041 62.7136 47.2841C62.3849 47.8641 62.2206 48.5311 62.2206 49.2851C62.2206 50.0198 62.3946 50.6868 62.7426 51.2861C63.0906 51.8855 63.5546 52.3591 64.1346 52.7071C64.7146 53.0551 65.3429 53.2291 66.0196 53.2291ZM80.2196 43.3111L80.5096 46.7911L80.3936 46.2981C80.7416 45.5635 81.2153 44.9351 81.8146 44.4131C82.4333 43.8718 83.0616 43.4658 83.6996 43.1951C84.3376 42.9051 84.8596 42.7601 85.2656 42.7601L85.1206 46.0081C84.1926 45.9308 83.3806 46.1048 82.6846 46.5301C82.008 46.9361 81.4763 47.4775 81.0896 48.1541C80.7223 48.8308 80.5386 49.5461 80.5386 50.3001V55.5781H77.2906V43.3111H80.2196Z" fill="black"/>
<path d="M0 2.85938C0 1.28019 1.28019 0 2.85938 0H86V0C86 1.57919 84.7198 2.85938 83.1406 2.85938H0V2.85938Z" fill="black"/>
<path d="M1 60H84.1406C85.7198 60 87 61.2802 87 62.8594V62.8594H3.85937C2.28019 62.8594 1 61.5792 1 60V60Z" fill="black"/>
<path d="M77.1646 27.2499C76.2785 27.2499 75.5295 26.9629 74.9177 26.389C74.3059 25.815 74 25.1124 74 24.2812C74 23.4499 74.3059 22.7473 74.9177 22.1733C75.5295 21.5994 76.2785 21.3124 77.1646 21.3124C77.5584 21.3124 77.9135 21.3652 78.23 21.4707C78.5464 21.5763 78.8242 21.7214 79.0633 21.9062V12.9999H84V15.6718H80.3291V24.2812C80.3291 25.1124 80.0232 25.815 79.4114 26.389C78.7996 26.9629 78.0506 27.2499 77.1646 27.2499Z" fill="black"/>
<path d="M70.1646 27.25C69.2785 27.25 68.5295 26.963 67.9177 26.3891C67.3059 25.8151 67 25.1125 67 24.2812C67 23.45 67.3059 22.7474 67.9177 22.1734C68.5295 21.5995 69.2785 21.3125 70.1646 21.3125C70.5584 21.3125 70.9135 21.3653 71.23 21.4708C71.5464 21.5764 71.8242 21.7215 72.0633 21.9062V13H77V15.6719H73.3291V24.2812C73.3291 25.1125 73.0232 25.8151 72.4114 26.3891C71.7996 26.963 71.0506 27.25 70.1646 27.25Z" fill="black"/>
</svg>
